:FULLY-SPECIFIED
:FORCE-ALL-JOINTS-BE-3DOF
:DEGREES
2548
root 4.16188 13.7099 -23.6685 950.917 79.1235 -131.6
lfemur -38.4503 14.1668 -12.3183
ltibia 89.3528 0 0
lfoot -28.1387 26.1982 0
ltoes -39.036 0 0
rfemur -56.658 -25.5248 10.025
rtibia 66.1464 0 0
rfoot 0.251757 6.52926 0
rtoes 9.29548 0 0
lowerback 16.6993 -0.321283 -3.75953
upperback -1.19024 -0.827646 3.07852
thorax -10.6358 -0.051662 5.73718
lowerneck 5.10722 -14.7558 -15.2989
upperneck 0.365368 -20.683 15.0394
head 2.4291 -10.4844 6.22725
lclavicle 1.93368e-15 -1.11251e-14 0
lhumerus -52.2137 -46.2007 114.769
lradius 107.108 0 0
lwrist 82.1071 0 0
lhand 8.47064 400.754 0
lfingers 7.12502 0 0
lthumb 33.6755 -652.374 0
rclavicle 1.93368e-15 -1.11251e-14 0
rhumerus 11.4166 -13.2004 -57.9578
rradius 78.1042 0 0
rwrist 29.1587 0 0
rhand -37.7559 -408.243 0
rfingers 7.12502 0 0
rthumb -10.8021 282.117 0
2549
root 4.13227 13.7209 -23.7815 953.737 77.7616 -128.811
lfemur -38.6272 14.3173 -12.5775
ltibia 89.2005 0 0
lfoot -28.1912 26.3378 0
ltoes -38.9636 0 0
rfemur -56.5844 -25.3439 10.1184
rtibia 66.8986 0 0
rfoot 0.0361973 5.87772 0
rtoes 9.43344 0 0
lowerback 16.7389 -0.288585 -3.80881
upperback -1.18518 -0.799497 3.05635
thorax -10.6577 -0.0356922 5.73448
lowerneck 5.1248 -14.7938 -15.3473
upperneck 0.36945 -20.7445 15.1649
head 2.44689 -10.5162 6.26918
lclavicle 2.25187e-15 -1.03394e-14 0
lhumerus -51.6836 -46.7657 114.692
lradius 106.803 0 0
lwrist 82.0618 0 0
lhand 8.41295 400.871 0
lfingers 7.12502 0 0
lthumb 33.6213 -652.237 0
rclavicle 2.25187e-15 -1.03394e-14 0
rhumerus 12.5619 -12.2635 -57.0902
rradius 78.5263 0 0
rwrist 28.8722 0 0
rhand -37.4092 -407.96 0
rfingers 7.12502 0 0
rthumb -10.4673 282.393 0
2550
root 4.10143 13.7324 -23.9001 956.679 76.3361 -125.891
lfemur -38.8105 14.4867 -12.8514
ltibia 89.0345 0 0
lfoot -28.2558 26.4829 0
ltoes -38.8872 0 0
rfemur -56.5058 -25.1605 10.2148
rtibia 67.6965 0 0
rfoot -0.193623 5.19154 0
rtoes 9.58141 0 0
lowerback 16.7801 -0.254491 -3.86428
upperback -1.18052 -0.771005 3.0332
thorax -10.6811 -0.0191759 5.73423
lowerneck 5.14401 -14.8367 -15.4007
upperneck 0.375575 -20.8132 15.2976
head 2.4665 -10.5516 6.31363
lclavicle 2.58653e-15 -9.52457e-15 0
lhumerus -51.141 -47.3592 114.621
lradius 106.48 0 0
lwrist 82.0255 0 0
lhand 8.35727 400.998 0
lfingers 7.12502 0 0
lthumb 33.5691 -652.089 0
rclavicle 2.58653e-15 -9.52457e-15 0
rhumerus 13.7735 -11.2829 -56.1765
rradius 78.9784 0 0
rwrist 28.5851 0 0
rhand -37.0459 -407.664 0
rfingers 7.12502 0 0
rthumb -10.1166 282.682 0
2551
root 4.0694 13.7445 -24.0242 959.734 74.8497 -122.851
lfemur -38.9997 14.6741 -13.1389
ltibia 88.8556 0 0
lfoot -28.3317 26.6327 0
ltoes -38.8072 0 0
rfemur -56.4222 -24.9747 10.3143
rtibia 68.5369 0 0
rfoot -0.436971 4.47313 0
rtoes 9.73853 0 0
lowerback 16.8228 -0.219087 -3.92554
upperback -1.17623 -0.742186 3.00916
thorax -10.7057 -0.0021463 5.7363
lowerneck 5.16462 -14.8838 -15.4584
upperneck 0.383665 -20.8883 15.437
head 2.48779 -10.5904 6.36034
lclavicle 2.93627e-15 -8.68259e-15 0
lhumerus -50.585 -47.9791 114.556
lradius 106.141 0 0
lwrist 81.9967 0 0
lhand 8.30301 401.135 0
lfingers 7.12502 0 0
lthumb 33.5183 -651.931 0
rclavicle 2.93627e-15 -8.68259e-15 0
rhumerus 15.0463 -10.261 -55.2202
rradius 79.4583 0 0
rwrist 28.2972 0 0
rhand -36.6671 -407.355 0
rfingers 7.12502 0 0
rthumb -9.75088 282.984 0
2552
root 4.03625 13.757 -24.1533 962.896 73.305 -119.698
lfemur -39.1945 14.8782 -13.439
ltibia 88.665 0 0
lfoot -28.4178 26.7867 0
ltoes -38.7235 0 0
rfemur -56.334 -24.7869 10.4167
rtibia 69.4165 0 0
rfoot -0.693118 3.7249 0
rtoes 9.90391 0 0
lowerback 16.867 -0.182461 -3.9922
upperback -1.17228 -0.713059 2.98431
thorax -10.7316 0.0153635 5.74052
lowerneck 5.18639 -14.9345 -15.5199
upperneck 0.393641 -20.9689 15.5823
head 2.51063 -10.6319 6.40907
lclavicle 3.29972e-15 -7.81561e-15 0
lhumerus -50.015 -48.623 114.493
lradius 105.788 0 0
lwrist 81.9741 0 0
lhand 8.24961 401.28 0
lfingers 7.12502 0 0
lthumb 33.4683 -651.764 0
rclavicle 3.29972e-15 -7.81561e-15 0
rhumerus 16.3754 -9.20018 -54.225
rradius 79.9642 0 0
rwrist 28.0087 0 0
rhand -36.2736 -407.034 0
rfingers 7.12502 0 0
rthumb -9.37101 283.298 0
2553
root 4.00201 13.77 -24.2871 966.157 71.7049 -116.442
lfemur -39.3942 15.0981 -13.7505
ltibia 88.4634 0 0
lfoot -28.5134 26.9442 0
ltoes -38.6364 0 0
rfemur -56.2412 -24.5976 10.5222
rtibia 70.3319 0 0
rfoot -0.961329 2.94925 0
rtoes 10.0767 0 0
lowerback 16.9124 -0.144703 -4.06385
upperback -1.16866 -0.68364 2.95871
thorax -10.7586 0.0333205 5.74677
lowerneck 5.20911 -14.9883 -15.5849
upperneck 0.405427 -21.0542 15.7328
head 2.53488 -10.6758 6.45955
lclavicle 3.67552e-15 -6.92575e-15 0
lhumerus -49.4301 -49.2889 114.432
lradius 105.421 0 0
lwrist 81.9559 0 0
lhand 8.19646 401.433 0
lfingers 7.12502 0 0
lthumb 33.4187 -651.589 0
rclavicle 3.67552e-15 -6.92575e-15 0
rhumerus 17.7557 -8.10283 -53.1945
rradius 80.494 0 0
rwrist 27.7193 0 0
rhand -35.8664 -406.701 0
rfingers 7.12502 0 0
rthumb -8.9779 283.624 0
2554
root 3.96673 13.7834 -24.4252 969.51 70.052 -113.092
lfemur -39.5984 15.3326 -14.0724
ltibia 88.252 0 0
lfoot -28.6174 27.1045 0
ltoes -38.5458 0 0
rfemur -56.144 -24.407 10.6306
rtibia 71.2799 0 0
rfoot -1.24088 2.14857 0
rtoes 10.256 0 0
lowerback 16.9591 -0.1059 -4.14008
upperback -1.16534 -0.653946 2.93244
thorax -10.7867 0.0516913 5.75489
lowerneck 5.23254 -15.0445 -15.6527
upperneck 0.418944 -21.1433 15.8878
head 2.56042 -10.7217 6.51155
lclavicle 4.06227e-15 -6.0151e-15 0
lhumerus -48.8296 -49.9745 114.372
lradius 105.042 0 0
lwrist 81.9408 0 0
lhand 8.14299 401.593 0
lfingers 7.12502 0 0
lthumb 33.3688 -651.406 0
rclavicle 4.06227e-15 -6.0151e-15 0
rhumerus 19.1822 -6.97139 -52.1323
rradius 81.0458 0 0
rwrist 27.4291 0 0
rhand -35.4465 -406.358 0
rfingers 7.12502 0 0
rthumb -8.57244 283.959 0
2555
root 3.93047 13.7972 -24.5673 972.948 68.349 -109.656
lfemur -39.8068 15.5807 -14.4034
ltibia 88.0316 0 0
lfoot -28.7289 27.2672 0
ltoes -38.452 0 0
rfemur -56.0426 -24.2155 10.7421
rtibia 72.2571 0 0
rfoot -1.53102 1.32529 0
rtoes 10.441 0 0
lowerback 17.0069 -0.0661408 -4.2205
upperback -1.1623 -0.623995 2.90559
thorax -10.8157 0.0704429 5.76474
lowerneck 5.25645 -15.1026 -15.7229
upperneck 0.434115 -21.2354 16.0466
head 2.5871 -10.7691 6.5648
lclavicle 4.45861e-15 -5.08578e-15 0
lhumerus -48.2128 -50.6777 114.31
lradius 104.652 0 0
lwrist 81.9272 0 0
lhand 8.08861 401.759 0
lfingers 7.12502 0 0
lthumb 33.3181 -651.217 0
rclavicle 4.45861e-15 -5.08578e-15 0
rhumerus 20.6499 -5.80827 -51.0423
rradius 81.6175 0 0
rwrist 27.138 0 0
rhand -35.0146 -406.005 0
rfingers 7.12502 0 0
rthumb -8.15554 284.304 0
2556
root 3.89327 13.8114 -24.7129 976.462 66.5987 -106.143
lfemur -40.0186 15.8413 -14.7426
ltibia 87.8032 0 0
lfoot -28.8471 27.4315 0
ltoes -38.355 0 0
rfemur -55.9372 -24.0235 10.8565
rtibia 73.2602 0 0
rfoot -1.83104 0.481804 0
rtoes 10.6308 0 0
lowerback 17.0556 -0.025513 -4.3047
upperback -1.15951 -0.593804 2.87823
thorax -10.8455 0.0895421 5.77617
lowerneck 5.2806 -15.1619 -15.7949
upperneck 0.450861 -21.3296 16.2085
head 2.6148 -10.8175 6.61906
lclavicle 4.86316e-15 -4.13989e-15 0
lhumerus -47.5789 -51.3962 114.246
lradius 104.253 0 0
lwrist 81.9136 0 0
lhand 8.03274 401.931 0
lfingers 7.12502 0 0
lthumb 33.266 -651.022 0
rclavicle 4.86316e-15 -4.13989e-15 0
rhumerus 22.1538 -4.61588 -49.9278
rradius 82.2072 0 0
rwrist 26.846 0 0
rhand -34.5719 -405.643 0
rfingers 7.12502 0 0
rthumb -7.72809 284.658 0
